<?xml version="1.0" encoding="UTF-8" standalone="no"?>
<svg
   style="height: 512px; width: 512px;"
   viewBox="0 0 512 512"
   version="1.1"
   id="svg29"
   sodipodi:docname="logo.svg"
   inkscape:version="1.1.2 (0a00cf5339, 2022-02-04)"
   xmlns:inkscape="http://www.inkscape.org/namespaces/inkscape"
   xmlns:sodipodi="http://sodipodi.sourceforge.net/DTD/sodipodi-0.dtd"
   xmlns="http://www.w3.org/2000/svg"
   xmlns:svg="http://www.w3.org/2000/svg">
  <defs
     id="defs33" />
  <sodipodi:namedview
     id="namedview31"
     pagecolor="#ffffff"
     bordercolor="#666666"
     borderopacity="1.0"
     inkscape:pageshadow="2"
     inkscape:pageopacity="0.0"
     inkscape:pagecheckerboard="0"
     showgrid="false"
     inkscape:zoom="1"
     inkscape:cx="193"
     inkscape:cy="236"
     inkscape:window-width="1440"
     inkscape:window-height="851"
     inkscape:window-x="0"
     inkscape:window-y="0"
     inkscape:window-maximized="1"
     inkscape:current-layer="g27" />
  <g
     class=""
     style="fill:#000000"
     transform="translate(25.959373,-3.7567206)"
     id="g27">
    <path
       id="path5281"
       style="opacity:0.5;fill:#ffff00;stroke:none;stroke-width:1.6709"
       d="m 344.71274,112.75408 -56.625,76.40821 a 143.19148,150.71729 0 0 0 -47.69922,-8.6211 143.19148,150.71729 0 0 0 -143.191412,150.7168 143.19148,150.71729 0 0 0 143.191412,150.7168 143.19148,150.71729 0 0 0 143.19141,-150.7168 143.19148,150.71729 0 0 0 -36.61719,-100.63477 l 55.58594,-75.00586 z" />
    <path
       d="m 410.64516,27.215015 -14.5,20.4 49.5,35.1 14.5,-20.3 z m -57.4,12.3 -14.1,20.7 111.3,76.200005 14.1,-20.7 z m -7.3,53.4 -69.9,82.800005 c -10.3,-2.1 -20.9,-3.2 -31.8,-3.2 -86.8,0 -157.250005,70.5 -157.250005,157.3 0,86.4 70.450005,157.4 157.250005,157.4 86.8,0 157.3,-71 157.3,-157.4 0,-37.8 -13.4,-72.5 -35.6,-99.6 l 51.4,-86.9 z m 7.4,39.000005 29.5,19.5 -46.5,78 c 26.1,23.9 42.5,58.2 42.5,96.4 0,72 -58.5,130.4 -130.6,130.4 -72,0 -130.55,-58.4 -130.55,-130.4 0,-72.1 58.55,-130.6 130.55,-130.6 22.6,0 43.9,5.8 62.5,15.9 z"
       fill="#fff"
       fill-opacity="1"
       id="path25"
       style="fill:#000000"
       sodipodi:nodetypes="ccccccccccccssssccccccsssscc" />
    <path
       d="m 322.81279,294.65311 c -45.29811,13.6331 -31.3666,146.89057 -165.8745,66.77418 17.53993,54.96955 76.33383,85.20937 131.33361,67.76476 53.47466,-16.96087 83.924,-72.77886 69.62285,-126.46766 -10.66321,-10.46594 -22.43923,-11.87144 -35.08196,-8.07128 z m -3.91748,25.68644 c 4.8311,-1.63722 9.69957,-1.50282 13.61734,0.92639 8.96553,5.4442 9.8225,20.38426 1.884,33.39312 -7.84317,12.97861 -21.53192,19.10382 -30.49745,13.65962 -8.96553,-5.44421 -9.8225,-20.38427 -1.97933,-33.36289 4.50276,-7.3031 10.74478,-12.4302 16.97544,-14.61624 z m -39.01139,63.88405 c 1.14385,-0.3628 2.31792,-0.63028 3.61755,-0.83267 9.89021,-1.5633 18.87421,2.61613 20.00711,9.49556 1.16313,6.97475 -6.01572,13.44809 -15.85008,15.51821 -10.04137,1.0867 -18.81375,-2.42549 -20.06757,-9.6862 -0.95612,-5.99131 4.28609,-11.95531 12.29299,-14.4949 z"
       style="fill:#000080;fill-opacity:1"
       id="path492"
       sodipodi:nodetypes="ccscccccsccsccccs" />
    <path
       style="fill:#000080;stroke:none;stroke-width:0.615023px;stroke-linecap:butt;stroke-linejoin:miter;stroke-opacity:1"
       d="m 135.98783,139.53717 c 11.05566,21.21981 13.6005,23.52798 33.05469,31.74267 24.13031,7.89571 2.03891,-34.90351 -6.07845,-55.77222 -7.63564,-17.305147 -32.24231,-47.873781 -48.61081,-43.499371 -10.20078,12.214006 12.47741,49.747891 21.63457,67.528921 z"
       id="path788"
       sodipodi:nodetypes="ccccc" />
    <path
       style="fill:#000080;stroke:none;stroke-width:0.615023px;stroke-linecap:butt;stroke-linejoin:miter;stroke-opacity:1"
       d="m 290.88089,81.293401 c 0,0 -3.42183,24.666239 -5.86203,30.064709 -6.63799,20.9393 -13.89958,34.78168 -30.50099,47.83311 -21.19629,13.9761 -11.16566,-33.13216 -8.83525,-55.40241 2.80492,-18.705719 18.48526,-54.678715 35.42793,-54.772885 17.93631,0.60066 10.35567,20.56318 9.77034,32.277476 z"
       id="path3383"
       sodipodi:nodetypes="cccccc" />
    <path
       style="fill:#000080;stroke:none;stroke-width:0.615023px;stroke-linecap:butt;stroke-linejoin:miter;stroke-opacity:1"
       d="m 69.68526,217.88791 c 0,0 -14.284073,-10.72288 -21.958535,-17.55479 -17.84351,-12.81117 -38.0360976,-9.05323 -45.2881316,-28.8864 -6.704376,-24.48807 36.7268996,-8.21331 57.1730126,0.9164 16.910387,8.47404 48.960314,30.12421 43.789474,46.25881 -6.139846,16.8634 -23.271839,8.42348 -33.71582,-0.73402 z"
       id="path3385"
       sodipodi:nodetypes="cccccc" />
  </g>
</svg>
